<svg viewBox="0 0 24 24" xmlns="http://www.w3.org/2000/svg"><path fill="#47848F" d="M12 0C5.373 0 0 5.373 0 12s5.373 12 12 12 12-5.373 12-12S18.627 0 12 0zm0 2.182C17.436 2.182 21.818 6.564 21.818 12c0 5.436-4.382 9.818-9.818 9.818-5.436 0-9.818-4.382-9.818-9.818 0-5.436 4.382-9.818 9.818-9.818zm0 1.964A7.855 7.855 0 0 0 4.146 12 7.855 7.855 0 0 0 12 19.854 7.855 7.855 0 0 0 19.854 12 7.855 7.855 0 0 0 12 4.146zm0 2.182A5.673 5.673 0 0 1 17.673 12 5.673 5.673 0 0 1 12 17.673 5.673 5.673 0 0 1 6.327 12 5.673 5.673 0 0 1 12 6.327z"/></svg>
