<svg viewBox="0 0 24 24" xmlns="http://www.w3.org/2000/svg"><path d="M11.5725 0c-.1763 0-.3098.0013-.3584.0067-.0516.0053-.2159.021-.3636.0328-3.4088.3073-6.6017 2.1463-8.624 4.9728C1.1004 6.584.3892 8.2152.0535 10.0017c-.0547.2934-.0878.5351-.105.8031-.0073.1189-.0089 1.051-.0062 2.3872l.0058 2.1998.0388.4156c.2568 2.6568 1.3388 5.0722 3.1508 7.0313 1.7188 1.858 3.9628 3.1136 6.4828 3.6256.5962.1212 1.2272.1993 1.9352.2396.2089.0117 1.5542.0117 1.763 0 1.1-.0618 2.0078-.2083 2.9552-.4784.172-.049.2027-.0616.1808-.0704-.0148-.006-.8058-1.0704-1.7588-2.3648l-1.7325-2.3716-.217-.3212c-.1201-.1793-.2226-.3282-.2276-.3313-.005-.003-.0163.2147-.0252.4831-.0127.3819-.0194.4981-.0362.5586-.0271.0969-.0544.1716-.1059.2898-.0538.1234-.1041.2066-.214.3507a.637.637 0 0 1-.2206.1717c-.0829.0425-.098.0459-.3766.0459h-.2888l-.0913-.0587a.5863.5863 0 0 1-.231-.2409l-.0755-.1506-.0079-2.9787-.0062-2.9787.0557-.0755c.0769-.1049.2469-.2244.3705-.2602.0668-.019.2378-.0227 2.1588-.0227 1.8015 0 2.0949.0036 2.1697.0269.1728.0536.3313.1789.4061.321.0373.0707.0755.2062.082.2902.0014.0182-.076.1233-.2022.2733-.1196.1412-1.5314 1.8718-3.137 3.8445l-2.9198 3.5858-.2065.2539-.2069-.0004a.6635.6635 0 0 1-.2785-.0507c-.1038-.0432-.155-.0833-.29-.2136-.1385-.1335-.8295-.8127-1.5376-1.512-.708-.6993-1.288-1.275-1.2892-1.2793-.0013-.0043.4605-1.1436 1.0261-2.5331l1.0287-2.5267.1029-.0245c.1131-.027.3166-.0308.4242-.0079.0859.0182.1895.0524.285.0941.0956.0417.195.0758.2208.0758.0327 0 .8378-.0024 1.7897-.0053l1.7303-.0052.0587-.0417c.0644-.0461.1508-.1421.182-.2023.011-.0213.0243-.0724.0295-.1135l.0095-.0746-.0132-7.1798-.0133-7.1796-.0565-.1012c-.0313-.0556-.098-.1364-.1485-.18-.1404-.1209-.2512-.138-1.2495-.1912-.0913-.0048-.1788-.0097-.1945-.0109l-.0284-.0022H11.573z" fill="#000"/></svg>
