<svg viewBox="0 0 24 24" xmlns="http://www.w3.org/2000/svg"><path fill="#339933" d="M11.998 24c-.321 0-.641-.084-.922-.247l-2.936-1.737c-.438-.245-.224-.332-.08-.383.585-.203.703-.25 1.328-.605.065-.037.151-.023.218.017l2.256 1.339a.29.29 0 0 0 .272 0l8.795-5.076a.277.277 0 0 0 .134-.238V6.921a.283.283 0 0 0-.137-.242l-8.791-5.072a.278.278 0 0 0-.271 0L3.075 6.68a.284.284 0 0 0-.139.241v10.15a.27.27 0 0 0 .139.235l2.409 1.392c1.307.654 2.108-.116 2.108-.891V7.787c0-.142.114-.253.256-.253h1.115c.139 0 .255.112.255.253v10.021c0 1.745-.95 2.745-2.604 2.745-.508 0-.909 0-2.026-.551L2.28 18.675a1.857 1.857 0 0 1-.922-1.604V6.921c0-.659.353-1.275.922-1.603L11.076.242a1.925 1.925 0 0 1 1.846 0l8.794 5.076c.57.329.924.944.924 1.603v10.15c0 .659-.354 1.273-.924 1.604l-8.794 5.078a1.847 1.847 0 0 1-.924.247z"/></svg>
